<svg width="640" height="480" xmlns:xlink="http://www.w3.org/1999/xlink" xmlns="http://www.w3.org/2000/svg">
 <!-- Created with SVG-edit - http://svg-edit.googlecode.com/ -->
 <g>
  <title>Layer 1</title>
  <polyline stroke-linejoin="round" stroke-linecap="round" stroke-width="5" stroke="#000000" fill="none" id="1" points="98,145 98,144 101,142 102,140 104,139 109,137 113,135 120,132 127,129 134,127 141,125 150,123 158,122 165,121 170,121 177,121 184,123 191,126 198,129 206,132 211,135 216,139 221,143 226,146 232,152 237,156 241,160 244,164 247,167 249,170 251,172 253,173 254,175 255,175 255,176 256,176 257,177 258,177 259,177 261,177 263,177 266,176 271,174 277,171 284,167 291,163 299,158 306,154 313,150 321,145 327,141 332,138 337,136 340,135 343,135 345,134 346,134 348,134 349,134 351,134 354,134 356,134 360,136 365,138 369,141 374,143 378,145 383,148 388,151 393,155 397,159 402,164 407,167 412,171 416,175 419,178 423,181 425,183 427,186 430,187 432,189 434,191 436,192 437,193 437,194 438,194 439,195 440,195 441,195 443,194 445,192 448,189 452,185 456,183 459,179 464,175 467,173 472,170 477,168 480,166 483,166 486,165 488,164 491,163 493,163 494,163 495,163 497,163 498,163 500,163 502,164 505,165 509,166 512,167 515,169 518,170 520,172 523,173 524,173 525,174 "/>
  <polyline stroke-linejoin="round" stroke-linecap="round" stroke-width="5" stroke="#000000" fill="none" id="2" points="183,220 182,220 183,221 184,222 187,225 191,228 196,232 202,237 208,243 214,248 219,251 224,255 228,258 232,261 236,264 242,265 247,267 251,269 256,270 261,271 268,271 273,271 279,271 286,271 291,269 298,267 304,264 309,261 312,259 315,256 317,253 320,250 321,249 322,248 "/>
  <polyline stroke-linejoin="round" stroke-linecap="round" stroke-width="5" stroke="#000000" fill="none" id="3" points="383,253 384,253 385,254 387,255 390,258 393,260 396,263 401,267 405,270 409,274 413,277 418,281 423,283 427,286 432,288 436,290 439,290 442,291 443,291 445,291 446,291 448,291 450,291 452,290 454,289 456,287 458,285 460,283 463,281 465,279 467,276 470,274 472,272 473,269 475,267 476,265 477,263 478,261 478,260 "/>
  <polyline stroke-linejoin="round" stroke-linecap="round" stroke-width="5" stroke="#000000" fill="none" id="4" points="501,184 501,185 500,186 500,188 500,189 500,188 501,188 501,186 502,185 502,184 502,183 502,182 501,181 501,180 500,180 499,179 498,179 496,179 495,179 494,179 493,179 "/>
  <polyline stroke-linejoin="round" stroke-linecap="round" stroke-width="5" stroke="#000000" fill="none" id="5" points="348,170 349,170 350,170 351,170 353,170 354,171 355,171 356,171 357,170 357,169 358,168 358,166 358,163 358,161 358,160 358,159 358,157 358,156 357,156 356,156 353,155 348,155 342,155 335,155 "/>
  <polyline stroke-linejoin="round" stroke-linecap="round" stroke-width="5" stroke="#000000" fill="none" id="6" points="170,143 169,143 168,143 168,145 168,147 167,148 167,150 167,151 168,152 169,153 171,153 174,153 178,153 182,153 186,153 190,153 194,151 196,150 198,149 198,148 199,146 199,145 197,143 193,141 188,139 183,137 177,135 172,134 168,133 166,133 163,133 161,133 160,133 159,133 "/>
  <rect stroke-width="5" stroke="#000000" fill="#FF0000" id="svg_7" height="84" width="134" y="303" x="132"/>
  <ellipse ry="38" rx="149" stroke-width="5" stroke="#000000" fill="#FF0000" id="svg_8" cy="48" cx="230"/>
 </g>
</svg>